<mxfile host="app.diagrams.net" modified="2021-06-23T09:43:47.061Z" agent="5.0 (Macintosh; Intel Mac OS X 10_15_7) AppleWebKit/537.36 (KHTML, like Gecko) Chrome/91.0.4472.106 Safari/537.36" etag="X4J-LMMUOPh5NhKYP5Ps" version="14.8.0" type="github">
  <diagram name="Page-1" id="e7e014a7-5840-1c2e-5031-d8a46d1fe8dd">
    <mxGraphModel dx="946" dy="622" grid="1" gridSize="10" guides="1" tooltips="1" connect="1" arrows="1" fold="1" page="1" pageScale="1" pageWidth="1169" pageHeight="826" background="none" math="0" shadow="0">
      <root>
        <mxCell id="0" />
        <mxCell id="1" parent="0" />
        <mxCell id="-G7RlhfHXF_KcmEhn6gb-41" value="业务人员" style="swimlane;whiteSpace=wrap" vertex="1" parent="1">
          <mxGeometry x="1004.5" y="128" width="280" height="1192" as="geometry" />
        </mxCell>
        <mxCell id="-G7RlhfHXF_KcmEhn6gb-42" value="创建需求" style="" vertex="1" parent="-G7RlhfHXF_KcmEhn6gb-41">
          <mxGeometry x="85" y="112" width="110" height="50" as="geometry" />
        </mxCell>
        <mxCell id="-G7RlhfHXF_KcmEhn6gb-58" value="" style="ellipse;shape=startState;fillColor=#000000;strokeColor=#ff0000;" vertex="1" parent="-G7RlhfHXF_KcmEhn6gb-41">
          <mxGeometry x="125" y="42" width="30" height="28" as="geometry" />
        </mxCell>
        <mxCell id="-G7RlhfHXF_KcmEhn6gb-73" value="驳回" style="text;html=1;strokeColor=none;fillColor=none;align=center;verticalAlign=middle;whiteSpace=wrap;rounded=0;" vertex="1" parent="-G7RlhfHXF_KcmEhn6gb-41">
          <mxGeometry x="225.5" y="212" width="40" height="20" as="geometry" />
        </mxCell>
        <mxCell id="-G7RlhfHXF_KcmEhn6gb-79" style="edgeStyle=none;rounded=0;orthogonalLoop=1;jettySize=auto;html=1;exitX=0.5;exitY=0;exitDx=0;exitDy=0;strokeColor=#FF0000;" edge="1" parent="-G7RlhfHXF_KcmEhn6gb-41" source="-G7RlhfHXF_KcmEhn6gb-73" target="-G7RlhfHXF_KcmEhn6gb-73">
          <mxGeometry relative="1" as="geometry" />
        </mxCell>
        <mxCell id="-G7RlhfHXF_KcmEhn6gb-95" style="edgeStyle=none;rounded=0;orthogonalLoop=1;jettySize=auto;html=1;strokeColor=#FF0000;" edge="1" parent="-G7RlhfHXF_KcmEhn6gb-41">
          <mxGeometry relative="1" as="geometry">
            <mxPoint x="355.5" y="449" as="targetPoint" />
            <mxPoint x="155.5" y="419" as="sourcePoint" />
            <Array as="points">
              <mxPoint x="155.5" y="449" />
            </Array>
          </mxGeometry>
        </mxCell>
        <mxCell id="-G7RlhfHXF_KcmEhn6gb-47" value="产品经理" style="swimlane;whiteSpace=wrap" vertex="1" parent="1">
          <mxGeometry x="1284.5" y="128" width="280" height="1192" as="geometry" />
        </mxCell>
        <mxCell id="-G7RlhfHXF_KcmEhn6gb-72" value="通过" style="text;html=1;strokeColor=none;fillColor=none;align=center;verticalAlign=middle;whiteSpace=wrap;rounded=0;" vertex="1" parent="-G7RlhfHXF_KcmEhn6gb-47">
          <mxGeometry x="165.5" y="285" width="40" height="20" as="geometry" />
        </mxCell>
        <mxCell id="-G7RlhfHXF_KcmEhn6gb-77" style="edgeStyle=none;rounded=0;orthogonalLoop=1;jettySize=auto;html=1;exitX=0.5;exitY=1;exitDx=0;exitDy=0;strokeColor=#FF0000;" edge="1" parent="-G7RlhfHXF_KcmEhn6gb-47" source="-G7RlhfHXF_KcmEhn6gb-75">
          <mxGeometry relative="1" as="geometry">
            <mxPoint x="135.5" y="202" as="targetPoint" />
          </mxGeometry>
        </mxCell>
        <mxCell id="-G7RlhfHXF_KcmEhn6gb-75" value="业务需求确认" style="" vertex="1" parent="-G7RlhfHXF_KcmEhn6gb-47">
          <mxGeometry x="80.5" y="94" width="110" height="50" as="geometry" />
        </mxCell>
        <mxCell id="-G7RlhfHXF_KcmEhn6gb-80" value="确认结果" style="rhombus;whiteSpace=wrap;html=1;" vertex="1" parent="-G7RlhfHXF_KcmEhn6gb-47">
          <mxGeometry x="95.5" y="205" width="80" height="80" as="geometry" />
        </mxCell>
        <mxCell id="-G7RlhfHXF_KcmEhn6gb-87" style="edgeStyle=none;rounded=0;orthogonalLoop=1;jettySize=auto;html=1;exitX=0.5;exitY=1;exitDx=0;exitDy=0;strokeColor=#FF0000;" edge="1" parent="-G7RlhfHXF_KcmEhn6gb-47" source="-G7RlhfHXF_KcmEhn6gb-83" target="-G7RlhfHXF_KcmEhn6gb-84">
          <mxGeometry relative="1" as="geometry" />
        </mxCell>
        <mxCell id="-G7RlhfHXF_KcmEhn6gb-83" value="产品需求评审" style="" vertex="1" parent="-G7RlhfHXF_KcmEhn6gb-47">
          <mxGeometry x="80.5" y="437" width="110" height="50" as="geometry" />
        </mxCell>
        <mxCell id="-G7RlhfHXF_KcmEhn6gb-84" value="评审结果" style="rhombus;whiteSpace=wrap;html=1;fillColor=#fff2cc;strokeColor=#FF0000;" vertex="1" parent="-G7RlhfHXF_KcmEhn6gb-47">
          <mxGeometry x="95.5" y="545" width="80" height="80" as="geometry" />
        </mxCell>
        <mxCell id="-G7RlhfHXF_KcmEhn6gb-99" value="驳回" style="text;html=1;strokeColor=none;fillColor=none;align=center;verticalAlign=middle;whiteSpace=wrap;rounded=0;" vertex="1" parent="-G7RlhfHXF_KcmEhn6gb-47">
          <mxGeometry x="35.5" y="532" width="40" height="20" as="geometry" />
        </mxCell>
        <mxCell id="-G7RlhfHXF_KcmEhn6gb-111" value="PRD撰写" style="shape=document;whiteSpace=wrap;html=1;boundedLbl=1;strokeColor=#FF0000;" vertex="1" parent="-G7RlhfHXF_KcmEhn6gb-47">
          <mxGeometry x="145.5" y="322" width="120" height="38" as="geometry" />
        </mxCell>
        <mxCell id="-G7RlhfHXF_KcmEhn6gb-50" value="项目经理" style="swimlane;whiteSpace=wrap" vertex="1" parent="1">
          <mxGeometry x="1564.5" y="128" width="280" height="1192" as="geometry" />
        </mxCell>
        <mxCell id="-G7RlhfHXF_KcmEhn6gb-112" value="项目研发" style="shape=document;whiteSpace=wrap;html=1;boundedLbl=1;strokeColor=#FF0000;" vertex="1" parent="-G7RlhfHXF_KcmEhn6gb-50">
          <mxGeometry x="69.5" y="662" width="120" height="58" as="geometry" />
        </mxCell>
        <mxCell id="-G7RlhfHXF_KcmEhn6gb-52" value="研发" style="swimlane;whiteSpace=wrap" vertex="1" parent="1">
          <mxGeometry x="1844.5" y="128" width="280" height="1192" as="geometry" />
        </mxCell>
        <mxCell id="-G7RlhfHXF_KcmEhn6gb-54" value="测试" style="swimlane;whiteSpace=wrap" vertex="1" parent="1">
          <mxGeometry x="2124.5" y="128" width="280" height="1192" as="geometry" />
        </mxCell>
        <mxCell id="-G7RlhfHXF_KcmEhn6gb-94" value="" style="endArrow=classic;html=1;strokeColor=#FF0000;" edge="1" parent="-G7RlhfHXF_KcmEhn6gb-54">
          <mxGeometry width="50" height="50" relative="1" as="geometry">
            <mxPoint x="137.5" y="429" as="sourcePoint" />
            <mxPoint x="-634.5" y="446" as="targetPoint" />
            <Array as="points">
              <mxPoint x="137.5" y="446" />
              <mxPoint x="-14.5" y="446" />
            </Array>
          </mxGeometry>
        </mxCell>
        <mxCell id="-G7RlhfHXF_KcmEhn6gb-60" style="edgeStyle=none;rounded=0;orthogonalLoop=1;jettySize=auto;html=1;strokeColor=#FF0000;" edge="1" parent="1" source="-G7RlhfHXF_KcmEhn6gb-58">
          <mxGeometry relative="1" as="geometry">
            <mxPoint x="1144.5" y="240" as="targetPoint" />
          </mxGeometry>
        </mxCell>
        <mxCell id="-G7RlhfHXF_KcmEhn6gb-76" style="edgeStyle=none;rounded=0;orthogonalLoop=1;jettySize=auto;html=1;exitX=1;exitY=0.5;exitDx=0;exitDy=0;strokeColor=#FF0000;" edge="1" parent="1">
          <mxGeometry relative="1" as="geometry">
            <mxPoint x="1360" y="255" as="targetPoint" />
            <mxPoint x="1199.5" y="255" as="sourcePoint" />
          </mxGeometry>
        </mxCell>
        <mxCell id="-G7RlhfHXF_KcmEhn6gb-78" style="edgeStyle=none;rounded=0;orthogonalLoop=1;jettySize=auto;html=1;strokeColor=#FF0000;entryX=0.5;entryY=1;entryDx=0;entryDy=0;" edge="1" parent="1" target="-G7RlhfHXF_KcmEhn6gb-42">
          <mxGeometry relative="1" as="geometry">
            <mxPoint x="1130" y="340" as="targetPoint" />
            <mxPoint x="1379" y="370" as="sourcePoint" />
            <Array as="points">
              <mxPoint x="1145" y="370" />
            </Array>
          </mxGeometry>
        </mxCell>
        <mxCell id="-G7RlhfHXF_KcmEhn6gb-81" value="安全" style="swimlane;whiteSpace=wrap" vertex="1" parent="1">
          <mxGeometry x="2404.5" y="128" width="280" height="1192" as="geometry" />
        </mxCell>
        <mxCell id="-G7RlhfHXF_KcmEhn6gb-89" value="" style="shape=line;strokeWidth=6;strokeColor=#ff0000;rotation=-180;" vertex="1" parent="1">
          <mxGeometry x="1135" y="524" width="1375" height="24.25" as="geometry" />
        </mxCell>
        <mxCell id="-G7RlhfHXF_KcmEhn6gb-92" value="" style="endArrow=classic;html=1;strokeColor=#FF0000;" edge="1" parent="1">
          <mxGeometry width="50" height="50" relative="1" as="geometry">
            <mxPoint x="1682" y="547" as="sourcePoint" />
            <mxPoint x="1490" y="597" as="targetPoint" />
            <Array as="points">
              <mxPoint x="1682" y="597" />
              <mxPoint x="1530" y="597" />
            </Array>
          </mxGeometry>
        </mxCell>
        <mxCell id="-G7RlhfHXF_KcmEhn6gb-93" value="" style="endArrow=classic;html=1;strokeColor=#FF0000;" edge="1" parent="1">
          <mxGeometry width="50" height="50" relative="1" as="geometry">
            <mxPoint x="2002" y="547" as="sourcePoint" />
            <mxPoint x="1490" y="583" as="targetPoint" />
            <Array as="points">
              <mxPoint x="2002" y="583" />
              <mxPoint x="1850" y="583" />
            </Array>
          </mxGeometry>
        </mxCell>
        <mxCell id="-G7RlhfHXF_KcmEhn6gb-96" style="edgeStyle=none;rounded=0;orthogonalLoop=1;jettySize=auto;html=1;strokeColor=#FF0000;" edge="1" parent="1" source="-G7RlhfHXF_KcmEhn6gb-84">
          <mxGeometry relative="1" as="geometry">
            <mxPoint x="1630" y="800" as="targetPoint" />
            <Array as="points">
              <mxPoint x="1420" y="800" />
            </Array>
          </mxGeometry>
        </mxCell>
        <mxCell id="-G7RlhfHXF_KcmEhn6gb-97" value="通过" style="text;html=1;strokeColor=none;fillColor=none;align=center;verticalAlign=middle;whiteSpace=wrap;rounded=0;" vertex="1" parent="1">
          <mxGeometry x="1420" y="760" width="40" height="20" as="geometry" />
        </mxCell>
        <mxCell id="-G7RlhfHXF_KcmEhn6gb-98" style="edgeStyle=none;rounded=0;orthogonalLoop=1;jettySize=auto;html=1;exitX=0;exitY=0.5;exitDx=0;exitDy=0;strokeColor=#FF0000;" edge="1" parent="1">
          <mxGeometry relative="1" as="geometry">
            <mxPoint x="1360" y="600" as="targetPoint" />
            <mxPoint x="1380" y="703" as="sourcePoint" />
            <Array as="points">
              <mxPoint x="1320" y="703" />
              <mxPoint x="1320" y="600" />
            </Array>
          </mxGeometry>
        </mxCell>
        <mxCell id="-G7RlhfHXF_KcmEhn6gb-110" style="edgeStyle=none;rounded=0;orthogonalLoop=1;jettySize=auto;html=1;strokeColor=#FF0000;" edge="1" parent="1" source="-G7RlhfHXF_KcmEhn6gb-80">
          <mxGeometry relative="1" as="geometry">
            <mxPoint x="1420" y="520" as="targetPoint" />
          </mxGeometry>
        </mxCell>
        <mxCell id="-G7RlhfHXF_KcmEhn6gb-113" value="" style="endArrow=classic;html=1;strokeColor=#FF0000;" edge="1" parent="1">
          <mxGeometry width="50" height="50" relative="1" as="geometry">
            <mxPoint x="2480" y="560" as="sourcePoint" />
            <mxPoint x="1496" y="608" as="targetPoint" />
            <Array as="points">
              <mxPoint x="2480" y="608" />
              <mxPoint x="2116" y="608" />
            </Array>
          </mxGeometry>
        </mxCell>
      </root>
    </mxGraphModel>
  </diagram>
</mxfile>
